<svg xmlns="http://www.w3.org/2000/svg" width="100" height="100" viewBox="0 0 100 100" style="fill: #277FA5;">
	<path d="M35.91016,42.0152h9.81677a.99866.99866,0,0,1,.99866.99866V49.5708a.99872.99872,0,0,1-.99872.99872H35.91022a.99872.99872,0,0,1-.99872-.99872V43.01385A.99866.99866,0,0,1,35.91016,42.0152Z"/>
	<path d="M54.273,42.0152h9.81671a.99872.99872,0,0,1,.99872.99872V49.5708a.99872.99872,0,0,1-.99872.99872H54.273a.99866.99866,0,0,1-.99866-.99866v-6.557A.99866.99866,0,0,1,54.273,42.0152Z"/>
	<path d="M72.6358,42.0152h9.81677a.99866.99866,0,0,1,.99866.99866V49.5708a.99872.99872,0,0,1-.99872.99872H72.63586a.99872.99872,0,0,1-.99872-.99872V43.01385A.99866.99866,0,0,1,72.6358,42.0152Z"/>
	<path d="M17.54736,58.00989h9.81671a.99872.99872,0,0,1,.99872.99872v6.55688a.99866.99866,0,0,1-.99866.99866H17.54736a.99866.99866,0,0,1-.99866-.99866V59.00854A.99866.99866,0,0,1,17.54736,58.00989Z"/>
	<path d="M35.91016,58.00989h9.81677a.99866.99866,0,0,1,.99866.99866v6.55695a.99866.99866,0,0,1-.99866.99866H35.91022a.99872.99872,0,0,1-.99872-.99872V59.00854A.99866.99866,0,0,1,35.91016,58.00989Z"/>
	<path d="M54.273,58.00989h9.81671a.99872.99872,0,0,1,.99872.99872v6.55682a.99872.99872,0,0,1-.99872.99872H54.273a.99866.99866,0,0,1-.99866-.99866V59.00854A.99866.99866,0,0,1,54.273,58.00989Z"/>
	<path d="M72.6358,58.00989h9.81677a.99866.99866,0,0,1,.99866.99866v6.55695a.99866.99866,0,0,1-.99866.99866H72.63586a.99872.99872,0,0,1-.99872-.99872V59.00854A.99866.99866,0,0,1,72.6358,58.00989Z"/>
	<path d="M17.54736,74.00452h9.81671a.99872.99872,0,0,1,.99872.99872v6.55688a.99866.99866,0,0,1-.99866.99866H17.54736a.99866.99866,0,0,1-.99866-.99866V75.00317A.99866.99866,0,0,1,17.54736,74.00452Z"/>
	<path d="M35.91016,74.00452h9.81677a.99866.99866,0,0,1,.99866.99866v6.55695a.99866.99866,0,0,1-.99866.99866H35.91022a.99872.99872,0,0,1-.99872-.99872V75.00317A.99866.99866,0,0,1,35.91016,74.00452Z"/>
	<path d="M54.273,74.00452h9.81671a.99872.99872,0,0,1,.99872.99872v6.55682a.99872.99872,0,0,1-.99872.99872H54.273a.99866.99866,0,0,1-.99866-.99866V75.00317A.99866.99866,0,0,1,54.273,74.00452Z"/>
	<path d="M72.6358,74.00452h9.81677a.99866.99866,0,0,1,.99866.99866v6.55695a.99866.99866,0,0,1-.99866.99866H72.63586a.99872.99872,0,0,1-.99872-.99872V75.00317A.99866.99866,0,0,1,72.6358,74.00452Z"/>
	<path d="M85.4231,13.75793H77.5V8.5a3.5,3.5,0,0,0-7,0v5.25793h-41V8.5a3.5,3.5,0,0,0-7,0v5.25793H14.5769A9.57771,9.57771,0,0,0,5,23.33643v62.085A9.57773,9.57773,0,0,0,14.5769,95H85.4231A9.57773,9.57773,0,0,0,95,85.42139v-62.085A9.57771,9.57771,0,0,0,85.4231,13.75793ZM70.5,18.752v1.31617a3.5,3.5,0,0,0,7,0V18.752a6,6,0,1,1-7,0Zm-48,0v1.31617a3.5,3.5,0,0,0,7,0V18.752a6,6,0,1,1-7,0ZM90,85.42139A4.58243,4.58243,0,0,1,85.4231,89.999H14.5769A4.58243,4.58243,0,0,1,10,85.42139V34.575H90Z"/>
</svg>