<?xml version="1.0" encoding="UTF-8" standalone="no"?>
<svg xmlns:svg="http://www.w3.org/2000/svg" xmlns="http://www.w3.org/2000/svg" viewBox="0 0 512 512" fill="#888">
	<path d="m 478.34405,49.37425 c -21.54798,-21.575295 -50.8305,-33.709266 -81.33918,-33.709266 -30.50867,0 -59.76456,12.133971 -81.33917,33.709266 l -63.97831,63.92506 c 22.6417,3.92031 44.19037,12.66785 63.15153,25.65522 l 45.20353,-45.203524 c 20.69459,-19.734685 53.25757,-19.734685 73.92485,0 20.37507,20.454954 20.37507,53.523824 0,73.952154 l -19.92175,20.00163 -88.75351,88.75351 c -20.69459,19.73468 -53.23094,19.73468 -73.95216,0 -12.37428,-11.41439 -31.57577,-11.04094 -43.4701,0.88009 -11.92096,11.92096 -12.32104,31.09582 -0.90672,43.49673 21.57529,21.60192 50.8305,33.73589 81.36649,33.73589 30.50936,0 59.76456,-12.13397 81.33918,-33.73589 l 88.75351,-88.75351 19.86849,-19.94837 C 499.86603,190.58525 512,161.32936 512,130.79406 512,100.2847 499.86603,71.029492 478.29073,49.45488 Z m -164.65824,160.2547 c -0.34668,-3.06691 -1.17346,-6.02711 -2.48018,-8.80093 -0.16003,-0.45339 -0.34669,-0.90672 -0.61336,-1.30679 -1.46675,-2.9869 -3.3869,-5.70713 -5.73375,-8.05404 -21.57529,-21.5753 -50.8305,-33.68264 -81.33918,-33.68264 -30.50867,0 -59.76456,12.10734 -81.33917,33.68264 L 33.68924,299.95811 c -29.0688232,29.0422 -40.4033291,71.41927 -29.762466,111.09892 10.614237,39.70968 41.630175,70.72289 81.339179,81.36648 39.683057,10.61424 82.062857,-0.72006 111.126217,-29.78909 l 63.89844,-63.84518 v 0.0266 c -22.66833,-3.92031 -44.217,-12.66786 -63.15154,-25.68185 l -45.12365,45.12365 c -20.7219,19.73468 -53.257568,19.73468 -73.952156,0 -20.321823,-20.45496 -20.321823,-53.47058 0,-73.92485 L 186.49957,235.89651 h -0.0266 c 4.88035,-4.88035 10.69411,-8.72037 17.06798,-11.3345 3.30695,-1.25341 6.72055,-2.1602 10.18754,-2.72023 16.9881,-3.28026 34.50941,2.08018 46.75057,14.34803 5.89378,5.89378 13.86739,9.20101 22.18837,9.20101 8.34761,0 16.32109,-3.30696 22.18838,-9.20101 4.10697,-4.10697 6.98695,-9.30751 8.26705,-14.96111 v -0.40001 c 0.66674,-3.09354 0.8534,-6.29378 0.56003,-9.44064 0.0533,-0.58673 0.0533,-1.17346 0,-1.76012 z" />
</svg>